<svg xmlns="http://www.w3.org/2000/svg" xmlns:xlink="http://www.w3.org/1999/xlink" width="117" height="23" viewBox="0 0 117 23" role="img"><title>Talos Digital</title> <defs> <path id="a" d="M1.257.72h10.19V23H1.257z"></path> </defs> <g fill="none" fill-rule="evenodd"> <path id="logo-text" fill="#ffff" d="M0 1.859A.59.59 0 0 1 .188 1.4a.667.667 0 0 1 .468-.172H15.68a.69.69 0 0 1 .448.158c.129.104.205.261.222.472v3.565a.814.814 0 0 1-.174.494.582.582 0 0 1-.496.237h-4.817v15.721c0 .173-.06.33-.183.467a.589.589 0 0 1-.471.209H6.113a.64.64 0 0 1-.445-.195.63.63 0 0 1-.209-.481V6.155H.656a.636.636 0 0 1-.468-.188C.062 5.843 0 5.661 0 5.424V1.859zM27.146 7.935a43.7 43.7 0 0 0-.537 1.58c-.18.564-.362 1.134-.539 1.707-.177.575-.356 1.141-.537 1.702-.182.56-.361 1.084-.538 1.573h4.288l-2.137-6.562zm-2.542-6.147a.423.423 0 0 1 .091-.185.971.971 0 0 1 .19-.188 1 1 0 0 1 .237-.136.626.626 0 0 1 .236-.05h3.575c.159 0 .293.05.405.15.111.101.196.19.25.266l.352.82 7.33 19.44c.075.192.06.348-.042.468-.103.12-.279.179-.531.179h-4.008c-.213 0-.38-.04-.495-.122-.117-.081-.207-.218-.272-.41a89.08 89.08 0 0 1-.546-1.457c-.177-.483-.354-.97-.53-1.457h-7.415c-.177.488-.356.974-.537 1.457-.182.485-.361.97-.539 1.456-.12.356-.357.533-.712.533h-4.119a.668.668 0 0 1-.439-.143c-.117-.096-.137-.24-.063-.432l7.582-20.189zM41.236 1.846a.64.64 0 0 1 .167-.444.59.59 0 0 1 .461-.188h4.133a.64.64 0 0 1 .434.172c.13.115.2.269.21.46V17.47h7.678c.17 0 .314.057.434.172.12.115.18.272.18.474v3.775a.691.691 0 0 1-.16.446.588.588 0 0 1-.454.216H41.85c-.41 0-.614-.212-.614-.633V1.846zM63.69 11.898c0 .794.131 1.536.39 2.226.26.688.625 1.29 1.095 1.8.47.514 1.026.916 1.667 1.207a5.056 5.056 0 0 0 2.12.44 5.062 5.062 0 0 0 3.8-1.645 5.54 5.54 0 0 0 1.095-1.802c.26-.69.39-1.432.39-2.226 0-.785-.13-1.525-.39-2.219a5.615 5.615 0 0 0-1.096-1.817 5.126 5.126 0 0 0-1.672-1.22 5.06 5.06 0 0 0-2.127-.446c-.772 0-1.478.15-2.12.446a5.16 5.16 0 0 0-1.667 1.22 5.581 5.581 0 0 0-1.094 1.817 6.273 6.273 0 0 0-.39 2.22m-5.405.013a11.138 11.138 0 0 1 1.454-5.55 11.064 11.064 0 0 1 1.669-2.233 10.453 10.453 0 0 1 2.16-1.716 10.786 10.786 0 0 1 2.55-1.106 10.154 10.154 0 0 1 2.843-.394c.978 0 1.924.13 2.836.394a10.632 10.632 0 0 1 4.725 2.822c.65.67 1.207 1.414 1.668 2.233a11.57 11.57 0 0 1 1.076 2.627c.256.935.385 1.91.385 2.923 0 1.016-.129 1.989-.385 2.921a11.28 11.28 0 0 1-1.076 2.615 10.812 10.812 0 0 1-1.669 2.21 10.88 10.88 0 0 1-2.166 1.716c-.793.48-1.645.848-2.558 1.106a10.36 10.36 0 0 1-2.836.39 10.35 10.35 0 0 1-5.394-1.496 10.694 10.694 0 0 1-2.16-1.716 11.066 11.066 0 0 1-1.668-2.21 11.105 11.105 0 0 1-1.454-5.536M86.48 15.66c.158.134.361.314.607.54.248.224.528.447.845.666.475.326.944.579 1.41.76.465.183.954.273 1.467.273.475 0 .872-.055 1.194-.164.32-.11.574-.257.76-.437.188-.182.319-.393.398-.632.08-.239.12-.492.12-.76 0-.296-.11-.563-.328-.797a3.443 3.443 0 0 0-.804-.624 6.883 6.883 0 0 0-.991-.466c-.344-.129-.642-.237-.893-.323-1.118-.402-2.096-.835-2.934-1.299-.838-.464-1.534-.98-2.094-1.548a5.825 5.825 0 0 1-1.257-1.88c-.28-.684-.418-1.446-.418-2.288 0-.89.173-1.699.523-2.426A5.316 5.316 0 0 1 85.58 2.39c.647-.516 1.426-.914 2.338-1.198C88.83.912 89.85.77 90.976.77c.848 0 1.66.097 2.438.293a9.184 9.184 0 0 1 2.297.942c.316.19.616.389.9.596.283.205.533.403.746.596.215.191.384.373.511.545.126.172.19.32.19.444 0 .126-.031.24-.093.345-.06.106-.152.225-.272.36l-2.135 2.34c-.159.163-.317.244-.475.244a.597.597 0 0 1-.358-.115 4.557 4.557 0 0 1-.356-.287l-.124-.115a11.2 11.2 0 0 0-.623-.502 5.384 5.384 0 0 0-.733-.467 5.006 5.006 0 0 0-.823-.345 2.944 2.944 0 0 0-.88-.136 4.49 4.49 0 0 0-.866.08c-.27.05-.508.135-.712.25a1.36 1.36 0 0 0-.489.453 1.21 1.21 0 0 0-.18.682c0 .268.063.5.194.695.13.196.325.378.587.547.261.168.585.325.97.474.387.148.836.308 1.347.48.988.335 1.898.687 2.73 1.055.834.37 1.553.805 2.158 1.308a5.402 5.402 0 0 1 1.418 1.803c.34.697.51 1.546.51 2.54 0 1.053-.21 2.008-.629 2.865a6.536 6.536 0 0 1-1.725 2.19c-.732.602-1.59 1.069-2.576 1.4a9.953 9.953 0 0 1-3.183.495 8.808 8.808 0 0 1-3.156-.591c-1.034-.393-1.999-.92-2.892-1.584a7.391 7.391 0 0 1-.941-.82c-.257-.27-.46-.485-.608-.648l-.043-.044a.087.087 0 0 0-.027-.036.152.152 0 0 1-.03-.02c-.008-.02-.017-.033-.027-.036l-.027-.023c-.214-.24-.32-.432-.32-.575 0-.165.106-.347.32-.549l2.415-2.369c.196-.143.355-.216.475-.216.085 0 .172.03.265.087.093.059.205.143.336.258"></path> <g transform="translate(104.956)"> <mask id="b" fill="#fff"> <use xlink:href="#a"></use> </mask> <path fill="#FF4E44" d="M1.257.72V23l10.19-11.14z" mask="url(#b)"></path> </g> </g> </svg>